<?xml version="1.0" encoding="utf-8"?>
<!-- Generator: Adobe Illustrator 24.0.3, SVG Export Plug-In . SVG Version: 6.00 Build 0)  -->
<svg version="1.1" id="Layer_1" xmlns="http://www.w3.org/2000/svg" xmlns:xlink="http://www.w3.org/1999/xlink" x="0px" y="0px"
	 viewBox="0 0 558.4 558.4" style="enable-background:new 0 0 558.4 558.4;" xml:space="preserve">
<style type="text/css">
	.st0{fill:#FFC214;}
	.st1{display:none;}
	.st2{display:inline;}
	.st3{clip-path:url(#SVGID_2_);}
	.st4{clip-path:url(#SVGID_4_);}
	.st5{clip-path:url(#SVGID_6_);}
	.st6{clip-path:url(#SVGID_11_);}
	.st7{clip-path:url(#SVGID_12_);fill:#DADADA;}
	.st8{clip-path:url(#SVGID_15_);}
	.st9{clip-path:url(#SVGID_16_);fill:#FFFFFF;}
	.st10{fill:#DADADA;}
	.st11{fill:#FFFFFF;}
	.st12{clip-path:url(#SVGID_18_);fill:#CEB20D;}
	.st13{clip-path:url(#SVGID_20_);fill:#CEB20D;}
	.st14{clip-path:url(#SVGID_22_);fill:#364040;}
	.st15{clip-path:url(#SVGID_24_);fill:#364040;}
	.st16{display:none;clip-path:url(#SVGID_26_);fill:#95AFAE;}
	.st17{clip-path:url(#SVGID_28_);fill:#364040;}
	.st18{clip-path:url(#SVGID_30_);fill:#C90A0A;}
	.st19{clip-path:url(#SVGID_32_);fill:#CEB20D;}
	.st20{clip-path:url(#SVGID_34_);fill:#364040;}
</style>
<rect class="st0" width="558.4" height="558.4"/>
<g class="st1">
	<g class="st2">
		<g>
			<g>
				<defs>
					<rect id="SVGID_1_" x="177.2" y="142.7" width="292.4" height="309.1"/>
				</defs>
				<clipPath id="SVGID_2_">
					<use xlink:href="#SVGID_1_"  style="overflow:visible;"/>
				</clipPath>
				<path class="st3" d="M240.6,325.3c-1.1-1.1-2.9-1.1-3.9,0c-1.1,1.1-1.1,2.9,0,3.9c2.2,2.2,3.4,5.1,3.4,8.2
					c0,1.5,1.3,2.8,2.8,2.8s2.8-1.2,2.8-2.8C245.6,332.8,243.8,328.5,240.6,325.3L240.6,325.3z"/>
			</g>
		</g>
		<g>
			<g>
				<defs>
					<rect id="SVGID_3_" x="177.2" y="142.7" width="292.4" height="309.1"/>
				</defs>
				<clipPath id="SVGID_4_">
					<use xlink:href="#SVGID_3_"  style="overflow:visible;"/>
				</clipPath>
				<path class="st4" d="M469.1,447.3L434,360.4c7.3-5,12.1-13.5,12.1-23c0-14.4-10.9-26.2-24.8-27.8l4.6-42.1
					c15.4,0,27.9-12.6,27.9-27.9c0-15.4-12.5-27.9-27.9-27.9c-7.9,0-15.1,3.3-20.2,8.7L348.8,182c1.6-3.5,2.4-7.3,2.4-11.4
					c0-15.4-12.5-27.9-27.9-27.9s-27.9,12.5-27.9,27.9c0,4,0.9,7.9,2.4,11.4L241,220.3c-5.1-5.3-12.3-8.7-20.2-8.7
					c-15.4,0-27.9,12.5-27.9,27.9s12.5,27.9,27.9,27.9l4.6,42.1c-14,1.5-24.8,13.4-24.8,27.8c0,9.5,4.8,18,12.1,23l-35.1,86.9
					c-0.3,0.9-0.2,1.8,0.3,2.6c0.5,0.8,1.4,1.2,2.3,1.2h30.7c1.3,0,2.4-0.9,2.7-2.1l20.6-84.2c6.2-1.3,11.7-4.7,15.7-9.3l50.5,39.2
					c-3.1,4.6-4.9,10.1-4.9,15.8c0,7,2.6,13.6,7.3,18.8L300,448c-0.1,0.8,0.1,1.6,0.7,2.2c0.5,0.6,1.3,1,2.1,1h41
					c0.8,0,1.6-0.3,2.1-1c0.5-0.6,0.8-1.4,0.7-2.2l-2.6-18.7c4.7-5.2,7.2-11.8,7.2-18.8c0-5.7-1.8-11.2-4.9-15.8l50.5-39.3
					c4,4.7,9.5,8.1,15.7,9.3L433,449c0.3,1.3,1.4,2.1,2.7,2.1h30.7c0.9,0,1.8-0.5,2.3-1.2C469.3,449.1,469.4,448.1,469.1,447.3
					L469.1,447.3z M394.1,323.1l-44.9-21.9c0.8-2,1.4-4,1.7-6.1l0.7-0.5l43,27.9C394.4,322.7,394.2,322.9,394.1,323.1L394.1,323.1z
					 M323.2,336.7c-12.3,0-22.4-10-22.4-22.4c0-12.3,10-22.4,22.4-22.4s22.4,10,22.4,22.4C345.6,326.6,335.6,336.7,323.2,336.7
					L323.2,336.7z M230.9,309.6l-4.7-42.6c6.5-1.3,12.2-4.9,16.2-9.9l47.7,34L248.5,318C244,313.3,237.8,310.2,230.9,309.6
					L230.9,309.6z M295.4,288.1l-49.9-35.6c0.3-0.5,0.6-1.1,0.8-1.7l52.8,25.9C297.1,280.1,295.8,284,295.4,288.1L295.4,288.1z
					 M252,322.5l43-27.9l0.6,0.4c0.3,2.1,0.9,4.2,1.7,6.2l-44.9,21.9C252.3,322.9,252.1,322.7,252,322.5L252,322.5z M300.9,290.8
					c0-12.3,10-22.4,22.4-22.4s22.4,10,22.4,22.4c0,2-0.3,3.9-0.8,5.8c-1.2-1.5-2.6-2.9-4.2-4.1c0.2-0.4,0.3-0.8,0.3-1.2
					c0-4.6-1.8-8.9-5-12.2c-1.1-1.1-2.9-1.1-3.9,0s-1.1,2.9,0,4c1.6,1.6,2.7,3.7,3.2,5.9c-3.6-1.7-7.6-2.7-11.9-2.7
					c-8.7,0-16.5,4-21.6,10.2C301.1,294.7,300.9,292.8,300.9,290.8L300.9,290.8z M401,252.5l-50,35.6c-0.4-4.2-1.7-8.1-3.8-11.6
					l52.9-25.7C400.4,251.4,400.7,251.9,401,252.5L401,252.5z M398,318.1l-41.6-26.9l47.7-34c4,5,9.7,8.5,16.2,9.9l-4.7,42.6
					C408.7,310.2,402.5,313.3,398,318.1L398,318.1z M425.8,217.3c12.3,0,22.4,10,22.4,22.4c0,12.3-10,22.4-22.4,22.4
					s-22.4-10-22.4-22.4C403.4,227.3,413.5,217.3,425.8,217.3L425.8,217.3z M402.1,224.7c-2.7,4.3-4.3,9.4-4.3,14.9
					c0,2,0.2,3.9,0.6,5.8L343.9,272c-4.5-4.9-10.8-8.3-17.8-9v-64.6c8.2-0.8,15.4-5.2,19.9-11.6L402.1,224.7z M323.2,148.3
					c12.3,0,22.4,10,22.4,22.4c0,12.3-10,22.4-22.4,22.4s-22.4-10-22.4-22.4C300.9,158.3,310.9,148.3,323.2,148.3L323.2,148.3z
					 M300.5,186.9c4.6,6.4,11.7,10.7,19.9,11.6V263c-7.1,0.7-13.4,4.1-18,9.1L248,245.4c0.4-1.9,0.6-3.8,0.6-5.8
					c0-5.5-1.6-10.6-4.3-14.9L300.5,186.9z M198.4,239.6c0-12.3,10-22.4,22.4-22.4c12.3,0,22.4,10,22.4,22.4
					c0,12.3-10,22.4-22.4,22.4S198.4,251.9,198.4,239.6L198.4,239.6z M208.6,445.5h-24.4l33.3-82.4c3.3,1.4,6.9,2.2,10.7,2.2
					L208.6,445.5z M228.4,359.8c-12.3,0-22.4-10-22.4-22.4c0-12.3,10-22.4,22.4-22.4c12.3,0,22.4,10,22.4,22.4
					C250.8,349.7,240.7,359.8,228.4,359.8L228.4,359.8z M254.8,328.2l41.2-20.1c-0.5,2-0.7,4.1-0.7,6.2c0,12.4,8.1,22.9,19.3,26.6
					l-6.3,45.9c-1.7,1-3.2,2.2-4.6,3.6l-50.9-39.6c2.2-4,3.4-8.6,3.4-13.4C256.3,334.2,255.8,331.1,254.8,328.2L254.8,328.2z
					 M300.9,410.5c0-4.5,1.3-8.7,3.7-12.3l2,1.5l-3,21.6C301.8,418,300.9,414.3,300.9,410.5L300.9,410.5z M306,445.5L320.2,342
					c1,0.1,2.1,0.2,3.1,0.2c1.1,0,2.1-0.1,3.1-0.2l14.2,103.5H306z M345.6,410.5c0,3.8-1,7.5-2.8,10.8l-3-21.6l2-1.5
					C344.3,401.7,345.6,406,345.6,410.5L345.6,410.5z M342.7,390.4c-1.4-1.3-2.9-2.5-4.6-3.6l-6.3-45.9
					c11.2-3.6,19.3-14.2,19.3-26.6c0-2.1-0.2-4.2-0.7-6.2l41.3,20.1c-1,2.9-1.6,6-1.6,9.2c0,4.9,1.2,9.4,3.4,13.4L342.7,390.4z
					 M395.7,337.4c0-12.3,10-22.4,22.4-22.4c12.3,0,22.4,10,22.4,22.4c0,12.3-10,22.4-22.4,22.4
					C405.8,359.8,395.7,349.7,395.7,337.4L395.7,337.4z M437.9,445.5l-19.6-80.2c3.8,0,7.4-0.8,10.6-2.2l33.3,82.4L437.9,445.5
					L437.9,445.5z"/>
			</g>
		</g>
	</g>
	<path class="st2" d="M231.9,323.3c0,2-1.6,3.7-3.7,3.7c-2,0-3.7-1.6-3.7-3.7c0-2,1.6-3.7,3.7-3.7
		C230.3,319.6,231.9,321.3,231.9,323.3L231.9,323.3z"/>
	<path class="st2" d="M232.6,240.7c0,1.5,1.3,2.8,2.8,2.8s2.8-1.3,2.8-2.8c0-4.6-1.8-8.9-5-12.2c-1.1-1.1-2.9-1.1-4,0s-1.1,2.9,0,4
		C231.4,234.6,232.6,237.6,232.6,240.7L232.6,240.7z"/>
	<path class="st2" d="M224.5,226.5c0,2-1.6,3.7-3.7,3.7c-2,0-3.7-1.6-3.7-3.7c0-2,1.6-3.7,3.7-3.7
		C222.8,222.9,224.5,224.5,224.5,226.5L224.5,226.5z"/>
	<path class="st2" d="M438.5,240.7c0,1.5,1.3,2.8,2.8,2.8s2.8-1.3,2.8-2.8c0-4.6-1.8-8.9-5-12.2c-1.1-1.1-2.9-1.1-3.9,0
		c-1.1,1.1-1.1,2.9,0,4C437.3,234.6,438.5,237.6,438.5,240.7L438.5,240.7z"/>
	<path class="st2" d="M430.4,226.5c0,2-1.6,3.7-3.7,3.7c-2,0-3.7-1.6-3.7-3.7c0-2,1.6-3.7,3.7-3.7
		C428.7,222.9,430.4,224.5,430.4,226.5L430.4,226.5z"/>
	<path class="st2" d="M430.7,337.5c0,1.5,1.3,2.8,2.8,2.8s2.8-1.3,2.8-2.8c0-4.6-1.8-8.9-5-12.2c-1.1-1.1-2.9-1.1-4,0s-1.1,2.9,0,4
		C429.5,331.5,430.7,334.4,430.7,337.5L430.7,337.5z"/>
	<path class="st2" d="M422.6,323.3c0,2-1.6,3.7-3.7,3.7c-2,0-3.7-1.6-3.7-3.7c0-2,1.6-3.7,3.7-3.7
		C421,319.7,422.6,321.3,422.6,323.3L422.6,323.3z"/>
	<path class="st2" d="M335.3,171.1c0,1.5,1.3,2.8,2.8,2.8s2.8-1.2,2.8-2.8c0-4.6-1.8-8.9-5-12.2c-1.1-1.1-2.9-1.1-3.9,0
		c-1.1,1.1-1.1,2.9,0,4C334.1,165.1,335.3,168,335.3,171.1L335.3,171.1z"/>
	<path class="st2" d="M327.2,157c0,2-1.6,3.7-3.7,3.7c-2,0-3.7-1.6-3.7-3.7c0-2,1.6-3.7,3.7-3.7S327.2,155,327.2,157L327.2,157z"/>
	<path class="st2" d="M340.9,314.7c0-4.6-1.8-8.9-5-12.2c-1.1-1.1-2.9-1.1-3.9,0c-1.1,1.1-1.1,2.9,0,4c2.2,2.2,3.4,5.1,3.4,8.2
		c0,1.5,1.3,2.8,2.8,2.8C339.7,317.5,340.9,316.2,340.9,314.7L340.9,314.7z"/>
	<path class="st2" d="M327.2,300.6c0,2-1.6,3.7-3.7,3.7c-2,0-3.7-1.6-3.7-3.7c0-2,1.6-3.7,3.7-3.7S327.2,298.5,327.2,300.6
		L327.2,300.6z"/>
	<path class="st2" d="M327.2,277.2c0,2-1.6,3.7-3.7,3.7c-2,0-3.7-1.6-3.7-3.7c0-2,1.6-3.7,3.7-3.7S327.2,275.2,327.2,277.2
		L327.2,277.2z"/>
</g>
<g>
	<g>
		<g>
			<defs>
				<path id="SVGID_5_" d="M541.5,560H17.8C8,560,0,552,0,542.2V54c0-9.8,8-17.8,17.8-17.8h523.7c9.8,0,17.8,8,17.8,17.8v488.2
					C559.2,552,551.2,560,541.5,560z"/>
			</defs>
			<clipPath id="SVGID_6_">
				<use xlink:href="#SVGID_5_"  style="overflow:visible;"/>
			</clipPath>
			<g class="st5">
				<g>
					<g>
						<g>
							<defs>
								<rect id="SVGID_7_" x="-125.6" y="115.4" width="445.6" height="471.2"/>
							</defs>
							<clipPath id="SVGID_8_">
								<use xlink:href="#SVGID_7_"  style="overflow:visible;"/>
							</clipPath>
						</g>
						<g>
							<defs>
								<rect id="SVGID_9_" x="-125.6" y="115.4" width="445.6" height="471.2"/>
							</defs>
							<defs>
								<rect id="SVGID_10_" x="-125.6" y="115.4" width="445.6" height="471.2"/>
							</defs>
							<clipPath id="SVGID_11_">
								<use xlink:href="#SVGID_9_"  style="overflow:visible;"/>
							</clipPath>
							<clipPath id="SVGID_12_" class="st6">
								<use xlink:href="#SVGID_10_"  style="overflow:visible;"/>
							</clipPath>
							<path class="st7" d="M-29,393.7c-1.6-1.6-4.3-1.6-6.1,0c-1.6,1.6-1.6,4.3,0,6.1c3.4,3.4,5.2,7.8,5.2,12.6
								c0,2.4,1.9,4.3,4.3,4.3c2.4,0,4.3-1.9,4.3-4.3C-21.3,405.3-24.1,398.6-29,393.7L-29,393.7z"/>
						</g>
						<g>
							<defs>
								<rect id="SVGID_13_" x="-125.6" y="115.4" width="445.6" height="471.2"/>
							</defs>
							<defs>
								<rect id="SVGID_14_" x="-125.6" y="115.4" width="445.6" height="471.2"/>
							</defs>
							<clipPath id="SVGID_15_">
								<use xlink:href="#SVGID_13_"  style="overflow:visible;"/>
							</clipPath>
							<clipPath id="SVGID_16_" class="st8">
								<use xlink:href="#SVGID_14_"  style="overflow:visible;"/>
							</clipPath>
							<path class="st9" d="M319.3,579.7l-53.6-132.4c11.1-7.7,18.5-20.6,18.5-35.1c0-21.9-16.6-39.9-37.9-42.3l7.1-64.2
								c23.5,0,42.5-19.1,42.5-42.6s-19.1-42.6-42.6-42.6c-12.1,0-23.1,5-30.8,13.2l-86.7-58.3c2.4-5.3,3.7-11.1,3.7-17.3
								c0-23.5-19.1-42.6-42.6-42.6S54.3,134.5,54.3,158c0,6.2,1.3,12,3.7,17.3l-86.5,58.4c-7.7-8.1-18.6-13.2-30.8-13.2
								c-23.5,0-42.6,19.1-42.6,42.6s19.1,42.6,42.5,42.6l7.1,64.2c-21.3,2.4-37.9,20.4-37.9,42.3c0,14.5,7.2,27.4,18.5,35.1
								l-53.6,132.4c-0.6,1.3-0.4,2.8,0.4,4c0.7,1.2,2.1,1.9,3.6,1.9h46.9c1.9,0,3.7-1.3,4.1-3.3l31.4-128.4
								c9.5-1.9,17.9-7.1,24-14.2L62,499.6c-4.7,7-7.4,15.4-7.4,24.1c0,10.7,3.8,20.7,11.1,28.6l-3.8,28.6c-0.1,1.2,0.1,2.5,1,3.4
								c0.7,0.9,1.9,1.5,3.3,1.5h62.4c1.2,0,2.4-0.6,3.3-1.5c0.7-0.9,1.2-2.2,1-3.4l-3.8-28.6c7.1-7.8,11.1-17.9,11.1-28.6
								c0-8.7-2.7-17-7.4-24.1l76.9-59.8c6.1,7.1,14.4,12.3,24,14.2L265,582.5c0.4,1.9,2.2,3.3,4.1,3.3H316c1.5,0,2.8-0.7,3.6-1.9
								C319.6,582.5,319.7,581,319.3,579.7L319.3,579.7z M204.9,390.5L136.4,357c1.2-3,2.1-6.1,2.5-9.3l1-0.7l65.5,42.5
								C205.3,389.7,205.2,390.2,204.9,390.5L204.9,390.5z M96.9,411c-18.8,0-34-15.2-34-34s15.2-34,34-34s34,15.2,34,34
								C131.1,395.8,115.7,411,96.9,411L96.9,411z M-43.8,369.7l-7.1-64.9c9.9-1.9,18.6-7.4,24.7-15.1l72.6,51.8l-63.3,41.1
								C-23.8,375.5-33.3,370.8-43.8,369.7L-43.8,369.7z M54.6,337.1l-76-54.3c0.4-0.9,0.9-1.6,1.2-2.5l80.5,39.5
								C57.1,324.9,55.2,330.7,54.6,337.1L54.6,337.1z M-11.5,389.4L54,347l1,0.7c0.4,3.3,1.3,6.4,2.5,9.3l-68.5,33.4
								C-11.2,390.2-11.4,389.7-11.5,389.4L-11.5,389.4z M62.9,341.2c0-18.8,15.2-34,34-34s34,15.2,34,34c0,3-0.4,5.9-1.2,8.9
								c-1.9-2.4-4-4.4-6.4-6.2c0.3-0.6,0.4-1.2,0.4-1.8c0-7-2.7-13.6-7.7-18.5c-1.6-1.6-4.3-1.6-6.1,0c-1.6,1.6-1.6,4.3,0,6.1
								c2.5,2.5,4.1,5.6,4.9,9c-5.5-2.5-11.7-4-18-4c-13.3,0-25.1,6.1-32.8,15.5C63.3,347.1,62.9,344.2,62.9,341.2L62.9,341.2z
								 M215.5,282.8l-76.2,54.3c-0.6-6.4-2.7-12.4-5.8-17.6l80.6-39.2C214.7,281,215.1,281.9,215.5,282.8L215.5,282.8z
								 M210.8,382.8l-63.3-41.1l72.6-51.8c6.1,7.5,14.8,13,24.7,15.1l-7.1,64.9C227.2,370.8,217.8,375.5,210.8,382.8L210.8,382.8z
								 M253.3,229.1c18.8,0,34,15.2,34,34c0,18.8-15.2,34-34,34s-34-15.2-34-34S234.5,229.1,253.3,229.1L253.3,229.1z M217.2,240.4
								c-4.1,6.5-6.5,14.4-6.5,22.6c0,3,0.3,5.9,0.9,8.9l-83.1,40.5c-7-7.5-16.4-12.6-27.2-13.6v-98.4c12.6-1.2,23.4-8,30.3-17.6
								L217.2,240.4z M96.9,123.9c18.8,0,34,15.2,34,34s-15.2,34-34,34s-34-15.2-34-34C62.9,139.3,78.1,123.9,96.9,123.9L96.9,123.9
								z M62.3,182.8c7,9.8,17.9,16.4,30.3,17.6v98.4c-10.8,1-20.6,6.2-27.4,13.9l-83-40.7c0.6-2.8,0.9-5.8,0.9-8.9
								c0-8.3-2.4-16.1-6.5-22.6L62.3,182.8z M-93.4,263.1c0-18.8,15.2-34,34-34s34,15.2,34,34c0,18.8-15.2,34-34,34
								C-78.1,297.3-93.4,281.9-93.4,263.1L-93.4,263.1z M-77.8,577h-37.1l50.7-125.6c5,2.1,10.5,3.3,16.3,3.4L-77.8,577z
								 M-47.6,446.2c-18.8,0-34-15.2-34-34s15.2-34,34-34s34,15.2,34,34C-13.5,431-28.8,446.2-47.6,446.2L-47.6,446.2z M-7.4,398.2
								l62.9-30.6c-0.7,3.1-1,6.2-1,9.5c0,18.9,12.4,34.9,29.4,40.5l-9.6,70c-2.5,1.6-4.9,3.4-7,5.5l-77.5-60.4
								c3.4-6.1,5.2-13,5.2-20.4C-5,407.3-5.8,402.6-7.4,398.2L-7.4,398.2z M62.9,523.6c0-6.8,2.1-13.3,5.6-18.8l3,2.4L67,540
								C64.4,535,62.9,529.4,62.9,523.6L62.9,523.6z M70.6,577l21.6-157.7c1.6,0.1,3.1,0.3,4.7,0.3s3.3-0.1,4.7-0.3L123.2,577H70.6z
								 M131.1,523.6c0,5.8-1.5,11.4-4.1,16.4l-4.4-32.8l3-2.4C129,510.3,131.1,516.8,131.1,523.6L131.1,523.6z M126.6,493
								c-2.1-2.1-4.4-3.8-7-5.5l-9.6-70c17.2-5.5,29.4-21.6,29.4-40.5c0-3.3-0.4-6.4-1-9.5l62.9,30.6c-1.5,4.4-2.4,9.2-2.4,14.1
								c0,7.4,1.9,14.4,5.2,20.4L126.6,493z M207.4,412.2c0-18.8,15.2-34,34-34c18.8,0,34,15.2,34,34s-15.2,34-34,34
								C222.8,446.2,207.4,431,207.4,412.2L207.4,412.2z M271.8,577l-29.9-122.2c5.8,0,11.2-1.2,16.3-3.4L308.9,577H271.8z"/>
						</g>
					</g>
					<path class="st10" d="M-42.3,390.6c0,3.1-2.5,5.6-5.6,5.6s-5.6-2.5-5.6-5.6c0-3.1,2.5-5.6,5.6-5.6
						C-44.8,385.1-42.3,387.5-42.3,390.6L-42.3,390.6z"/>
					<path class="st10" d="M-41.3,264.7c0,2.4,1.9,4.3,4.3,4.3c2.4,0,4.3-1.9,4.3-4.3c0-7-2.7-13.6-7.7-18.5c-1.6-1.6-4.3-1.6-6.1,0
						c-1.6,1.6-1.6,4.3,0,6.1C-43.1,255.5-41.3,260-41.3,264.7L-41.3,264.7z"/>
					<path class="st10" d="M-53.6,243.3c0,3.1-2.5,5.6-5.6,5.6s-5.6-2.5-5.6-5.6c0-3.1,2.5-5.6,5.6-5.6
						C-56.1,237.6-53.6,240.2-53.6,243.3L-53.6,243.3z"/>
					<path class="st11" d="M272.7,264.7c0,2.4,1.9,4.3,4.3,4.3s4.3-1.9,4.3-4.3c0-7-2.7-13.6-7.7-18.5c-1.6-1.6-4.3-1.6-6.1,0
						c-1.6,1.6-1.6,4.3,0,6.1C270.7,255.5,272.7,260,272.7,264.7L272.7,264.7z"/>
					<path class="st11" d="M260.2,243.3c0,3.1-2.5,5.6-5.6,5.6c-3.1,0-5.6-2.5-5.6-5.6c0-3.1,2.5-5.6,5.6-5.6
						C257.7,237.6,260.2,240.2,260.2,243.3L260.2,243.3z"/>
					<path class="st11" d="M260.8,412.4c0,2.4,1.9,4.3,4.3,4.3s4.3-1.9,4.3-4.3c0-7-2.7-13.6-7.7-18.5c-1.6-1.6-4.3-1.6-6.1,0
						c-1.6,1.6-1.6,4.3,0,6.1C258.9,403.2,260.8,407.6,260.8,412.4L260.8,412.4z"/>
					<path class="st11" d="M248.4,390.8c0,3.1-2.5,5.6-5.6,5.6c-3.1,0-5.6-2.5-5.6-5.6c0-3.1,2.5-5.6,5.6-5.6
						C245.9,385.1,248.4,387.6,248.4,390.8L248.4,390.8z"/>
					<path class="st11" d="M115.4,158.8c0,2.4,1.9,4.3,4.3,4.3s4.3-1.9,4.3-4.3c0-7-2.7-13.6-7.7-18.5c-1.6-1.6-4.3-1.6-6.1,0
						c-1.6,1.6-1.6,4.3,0,6.1C113.6,149.6,115.4,154.1,115.4,158.8L115.4,158.8z"/>
					<path class="st11" d="M103,137.2c0,3.1-2.5,5.6-5.6,5.6c-3.1,0-5.6-2.5-5.6-5.6s2.5-5.6,5.6-5.6
						C100.6,131.6,103,134.1,103,137.2L103,137.2z"/>
					<path class="st11" d="M124,377.6c0-7-2.7-13.6-7.7-18.5c-1.6-1.6-4.3-1.6-6.1,0c-1.6,1.6-1.6,4.3,0,6.1
						c3.4,3.4,5.2,7.8,5.2,12.6c0,2.4,1.9,4.3,4.3,4.3C122.1,381.9,124,380,124,377.6L124,377.6z"/>
					<path class="st11" d="M103,356c0,3.1-2.5,5.6-5.6,5.6c-3.1,0-5.6-2.5-5.6-5.6c0-3.1,2.5-5.6,5.6-5.6
						C100.6,350.4,103,352.9,103,356L103,356z"/>
					<path class="st11" d="M103,320.3c0,3.1-2.5,5.6-5.6,5.6c-3.1,0-5.6-2.5-5.6-5.6c0-3.1,2.5-5.6,5.6-5.6
						C100.6,314.9,103,317.2,103,320.3L103,320.3z"/>
				</g>
			</g>
		</g>
		<g>
			<defs>
				<path id="SVGID_17_" d="M541.5,560H17.8C8,560,0,552,0,542.2V54c0-9.8,8-17.8,17.8-17.8h523.7c9.8,0,17.8,8,17.8,17.8v488.2
					C559.2,552,551.2,560,541.5,560z"/>
			</defs>
			<clipPath id="SVGID_18_">
				<use xlink:href="#SVGID_17_"  style="overflow:visible;"/>
			</clipPath>
			<path class="st12" d="M418.2,474.5c6.1,5.2,12.9,9.5,20.3,12.7c7.4,3.3,14.6,4.9,21.7,4.9c8,0,13.9-1.5,17.9-4.4
				c3.8-3,5.9-7,5.9-12c0-2.7-0.6-4.9-1.6-6.8c-1.2-1.9-2.8-3.6-4.9-5c-2.2-1.5-4.7-2.8-7.8-4.1s-6.4-2.8-10.1-4.3l-22.2-9.3
				c-4.3-1.8-8.6-4-12.6-6.8c-4.1-2.8-7.7-6.1-10.9-9.8c-3.3-3.7-5.8-8.1-7.7-13c-1.9-4.9-2.8-10.5-2.8-16.9c0-7,1.5-13.5,4.4-19.7
				c3-6.2,7.1-11.5,12.6-16.1c5.3-4.6,11.8-8.3,19.2-10.8c7.4-2.7,15.5-3.8,24.4-3.8c9.9,0,19.7,1.9,29.3,5.8
				c9.6,3.8,18,9.3,25.4,16.7l-20,24.1c-5.6-4.3-11.1-7.7-16.7-10.1c-5.6-2.4-11.7-3.6-18.5-3.6c-6.7,0-11.8,1.3-15.8,4
				c-3.8,2.7-5.9,6.5-5.9,11.4c0,2.7,0.6,4.9,1.9,6.7c1.3,1.8,3.1,3.6,5.5,4.9c2.4,1.5,5,2.8,8.3,4.1c3.3,1.3,6.5,2.8,10.2,4.3
				l21.9,8.9c10.4,4.1,18.6,9.9,24.7,17.2c6.1,7.2,9,17,9,29c0,7.1-1.5,13.9-4.3,20.3s-7.1,11.8-12.6,16.7
				c-5.5,4.7-12.3,8.6-20.3,11.5c-8,2.8-17,4.3-27.1,4.3c-11.1,0-22.2-2.1-33.3-6.1c-11.1-4.1-20.9-10.2-29.6-18.3L418.2,474.5z"/>
		</g>
		<g>
			<defs>
				<path id="SVGID_19_" d="M541.5,560H17.8C8,560,0,552,0,542.2V54c0-9.8,8-17.8,17.8-17.8h523.7c9.8,0,17.8,8,17.8,17.8v488.2
					C559.2,552,551.2,560,541.5,560z"/>
			</defs>
			<clipPath id="SVGID_20_">
				<use xlink:href="#SVGID_19_"  style="overflow:visible;"/>
			</clipPath>
			<path class="st13" d="M329.9,382.5v80c0,11.2-1.9,19.1-5.5,23.4c-3.6,4.3-8.9,6.4-15.8,6.4c-4.3,0-8.6-1.3-12.9-4.1
				c-4.1-2.8-7.8-7.1-10.9-12.7l-26,19.2c5.9,10.4,13.3,18.2,22,23.2c8.7,5,19.7,7.5,32.7,7.5c9.3,0,17.5-1.6,24.4-4.7
				c6.8-3.1,12.6-7.4,17-12.7c4.4-5.3,8-11.7,10.1-19.1c2.2-7.2,3.4-15.1,3.4-23.2v-83.1H329.9z"/>
		</g>
		<g>
			<defs>
				<path id="SVGID_21_" d="M541.5,560H17.8C8,560,0,552,0,542.2V54c0-9.8,8-17.8,17.8-17.8h523.7c9.8,0,17.8,8,17.8,17.8v488.2
					C559.2,552,551.2,560,541.5,560z"/>
			</defs>
			<clipPath id="SVGID_22_">
				<use xlink:href="#SVGID_21_"  style="overflow:visible;"/>
			</clipPath>
			<path class="st14" d="M416.7,473c6.1,5.2,12.9,9.5,20.3,12.7s14.6,4.9,21.7,4.9c8,0,13.9-1.5,17.9-4.4c3.8-3,5.9-7,5.9-12
				c0-2.7-0.6-4.9-1.6-6.8c-1.2-1.9-2.8-3.6-4.9-5c-2.2-1.5-4.7-2.8-7.8-4.1s-6.4-2.8-10.1-4.3l-22.2-9.3c-4.3-1.8-8.6-4-12.6-6.8
				c-4.1-2.8-7.7-6.1-10.9-9.8c-3.3-3.7-5.8-8.1-7.7-13c-1.9-4.9-2.8-10.5-2.8-16.9c0-7,1.5-13.5,4.4-19.7c3-6.2,7.1-11.5,12.6-16.1
				c5.3-4.6,11.8-8.3,19.2-10.8c7.4-2.7,15.5-3.8,24.4-3.8c9.9,0,19.7,1.9,29.3,5.8s18,9.3,25.4,16.7l-20,24.1
				c-5.6-4.3-11.1-7.7-16.7-10.1c-5.6-2.4-11.7-3.6-18.5-3.6c-6.7,0-11.8,1.3-15.8,4c-3.8,2.7-5.9,6.5-5.9,11.4
				c0,2.7,0.6,4.9,1.9,6.7c1.3,1.8,3.1,3.6,5.5,4.9c2.4,1.5,5,2.8,8.3,4.1c3.3,1.3,6.5,2.8,10.2,4.3l21.9,8.9
				c10.4,4.1,18.6,9.9,24.7,17.2c6.1,7.2,9,17,9,29c0,7.1-1.5,13.9-4.3,20.3c-2.8,6.4-7.1,11.8-12.6,16.7
				c-5.5,4.7-12.3,8.6-20.3,11.5c-8,2.8-17,4.3-27.1,4.3c-11.1,0-22.2-2.1-33.3-6.1c-11.1-4.1-20.9-10.2-29.6-18.3L416.7,473z"/>
		</g>
		<g>
			<defs>
				<path id="SVGID_23_" d="M541.5,560H17.8C8,560,0,552,0,542.2V54c0-9.8,8-17.8,17.8-17.8h523.7c9.8,0,17.8,8,17.8,17.8v488.2
					C559.2,552,551.2,560,541.5,560z"/>
			</defs>
			<clipPath id="SVGID_24_">
				<use xlink:href="#SVGID_23_"  style="overflow:visible;"/>
			</clipPath>
			<path class="st15" d="M328.4,382.5V461c0,11.2-1.9,19.1-5.5,23.4c-3.6,4.3-8.9,6.4-15.8,6.4c-4.3,0-8.6-1.3-12.9-4.1
				c-4.1-2.8-7.8-7.1-10.9-12.7l-26,19.2c5.9,10.4,13.3,18.2,22,23.2c8.7,5,19.7,7.5,32.7,7.5c9.3,0,17.5-1.6,24.4-4.7
				c6.8-3.1,12.6-7.4,17-12.7c4.4-5.3,8-11.7,10.1-19.1c2.2-7.2,3.4-15.1,3.4-23.2v-81.7H328.4z"/>
		</g>
		<g>
			<defs>
				<path id="SVGID_25_" d="M541.5,560H17.8C8,560,0,552,0,542.2V54c0-9.8,8-17.8,17.8-17.8h523.7c9.8,0,17.8,8,17.8,17.8v488.2
					C559.2,552,551.2,560,541.5,560z"/>
			</defs>
			<clipPath id="SVGID_26_">
				<use xlink:href="#SVGID_25_"  style="overflow:visible;"/>
			</clipPath>
			<rect x="328.4" y="347" class="st16" width="39.9" height="31.2"/>
		</g>
		<g>
			<defs>
				<path id="SVGID_27_" d="M541.5,560H17.8C8,560,0,552,0,542.2V54c0-9.8,8-17.8,17.8-17.8h523.7c9.8,0,17.8,8,17.8,17.8v488.2
					C559.2,552,551.2,560,541.5,560z"/>
			</defs>
			<clipPath id="SVGID_28_">
				<use xlink:href="#SVGID_27_"  style="overflow:visible;"/>
			</clipPath>
			<rect x="328.4" y="347.1" class="st17" width="13.3" height="30.8"/>
		</g>
		<g>
			<defs>
				<path id="SVGID_29_" d="M541.5,560H17.8C8,560,0,552,0,542.2V54c0-9.8,8-17.8,17.8-17.8h523.7c9.8,0,17.8,8,17.8,17.8v488.2
					C559.2,552,551.2,560,541.5,560z"/>
			</defs>
			<clipPath id="SVGID_30_">
				<use xlink:href="#SVGID_29_"  style="overflow:visible;"/>
			</clipPath>
			<rect x="355.1" y="347.1" class="st18" width="13.3" height="30.8"/>
		</g>
		<g>
			<defs>
				<path id="SVGID_31_" d="M541.5,560H17.8C8,560,0,552,0,542.2V54c0-9.8,8-17.8,17.8-17.8h523.7c9.8,0,17.8,8,17.8,17.8v488.2
					C559.2,552,551.2,560,541.5,560z"/>
			</defs>
			<clipPath id="SVGID_32_">
				<use xlink:href="#SVGID_31_"  style="overflow:visible;"/>
			</clipPath>
			<rect x="329.9" y="347.1" class="st19" width="38.5" height="35.4"/>
		</g>
		<g>
			<defs>
				<path id="SVGID_33_" d="M541.5,560H17.8C8,560,0,552,0,542.2V54c0-9.8,8-17.8,17.8-17.8h523.7c9.8,0,17.8,8,17.8,17.8v488.2
					C559.2,552,551.2,560,541.5,560z"/>
			</defs>
			<clipPath id="SVGID_34_">
				<use xlink:href="#SVGID_33_"  style="overflow:visible;"/>
			</clipPath>
			<rect x="328.4" y="347.1" class="st20" width="38.5" height="36.8"/>
		</g>
	</g>
</g>
</svg>
